<svg width="78" height="20" viewBox="0 0 78 20" version="1.1" xmlns="http://www.w3.org/2000/svg" xmlns:xlink="http://www.w3.org/1999/xlink">
<title>E-Hotel</title>
<desc>Created using Figma</desc>
<g id="Canvas" transform="translate(436 480)">
<g id="E-Hotel">
<use xlink:href="#path0_fill" transform="translate(-438 -487)" fill="#FFFFFF"/>
</g>
</g>
<defs>
<path id="path0_fill" d="M 11.9062 26L 2.35547 26L 2.35547 8.86719L 11.9062 8.86719L 11.9062 10.6367L 4.34766 10.6367L 4.34766 16.1562L 11.4492 16.1562L 11.4492 17.9141L 4.34766 17.9141L 4.34766 24.2188L 11.9062 24.2188L 11.9062 26ZM 14.3438 20.457L 14.3438 18.6758L 20.0977 18.6758L 20.0977 20.457L 14.3438 20.457ZM 36.457 26L 34.4648 26L 34.4648 17.9375L 25.4414 17.9375L 25.4414 26L 23.4492 26L 23.4492 8.86719L 25.4414 8.86719L 25.4414 16.1562L 34.4648 16.1562L 34.4648 8.86719L 36.457 8.86719L 36.457 26ZM 51.9609 19.5664C 51.9609 21.6602 51.4336 23.2969 50.3789 24.4766C 49.3242 25.6484 47.8672 26.2344 46.0078 26.2344C 44.8594 26.2344 43.8398 25.9648 42.9492 25.4258C 42.0586 24.8867 41.3711 24.1133 40.8867 23.1055C 40.4023 22.0977 40.1602 20.918 40.1602 19.5664C 40.1602 17.4727 40.6836 15.8437 41.7305 14.6797C 42.7773 13.5078 44.2305 12.9219 46.0898 12.9219C 47.8867 12.9219 49.3125 13.5195 50.3672 14.7148C 51.4297 15.9102 51.9609 17.5273 51.9609 19.5664ZM 42.1758 19.5664C 42.1758 21.207 42.5039 22.457 43.1602 23.3164C 43.8164 24.1758 44.7813 24.6055 46.0547 24.6055C 47.3281 24.6055 48.293 24.1797 48.9492 23.3281C 49.6133 22.4687 49.9453 21.2148 49.9453 19.5664C 49.9453 17.9336 49.6133 16.6953 48.9492 15.8516C 48.293 15 47.3203 14.5742 46.0312 14.5742C 44.7578 14.5742 43.7969 14.9922 43.1484 15.8281C 42.5 16.6641 42.1758 17.9102 42.1758 19.5664ZM 59.5312 24.6289C 59.875 24.6289 60.207 24.6055 60.5273 24.5586C 60.8477 24.5039 61.1016 24.4492 61.2891 24.3945L 61.2891 25.8828C 61.0781 25.9844 60.7656 26.0664 60.3516 26.1289C 59.9453 26.1992 59.5781 26.2344 59.25 26.2344C 56.7656 26.2344 55.5234 24.9258 55.5234 22.3086L 55.5234 14.668L 53.6836 14.668L 53.6836 13.7305L 55.5234 12.9219L 56.3438 10.1797L 57.4688 10.1797L 57.4688 13.1562L 61.1953 13.1562L 61.1953 14.668L 57.4688 14.668L 57.4688 22.2266C 57.4688 23 57.6523 23.5938 58.0195 24.0078C 58.3867 24.4219 58.8906 24.6289 59.5312 24.6289ZM 69.293 26.2344C 67.3945 26.2344 65.8945 25.6562 64.793 24.5C 63.6992 23.3437 63.1523 21.7383 63.1523 19.6836C 63.1523 17.6133 63.6602 15.9688 64.6758 14.75C 65.6992 13.5312 67.0703 12.9219 68.7891 12.9219C 70.3984 12.9219 71.6719 13.4531 72.6094 14.5156C 73.5469 15.5703 74.0156 16.9648 74.0156 18.6992L 74.0156 19.9297L 65.168 19.9297C 65.207 21.4375 65.5859 22.582 66.3047 23.3633C 67.0312 24.1445 68.0508 24.5352 69.3633 24.5352C 70.7461 24.5352 72.1133 24.2461 73.4648 23.668L 73.4648 25.4023C 72.7773 25.6992 72.125 25.9102 71.5078 26.0352C 70.8984 26.168 70.1602 26.2344 69.293 26.2344ZM 68.7656 14.5508C 67.7344 14.5508 66.9102 14.8867 66.293 15.5586C 65.6836 16.2305 65.3242 17.1602 65.2148 18.3477L 71.9297 18.3477C 71.9297 17.1211 71.6563 16.1836 71.1094 15.5352C 70.5625 14.8789 69.7813 14.5508 68.7656 14.5508ZM 79.2891 26L 77.3438 26L 77.3438 7.76562L 79.2891 7.76562L 79.2891 26Z"/>
</defs>
</svg>